<svg width="20" height="20" viewBox="0 0 20 20" fill="none" xmlns="http://www.w3.org/2000/svg">
  <path d="M15 6.875C15 5.47827 14.4469 4.13841 13.4623 3.15381C12.4777 2.16922 11.1378 1.61612 9.74106 1.61612C8.34428 1.61612 7.00442 2.16922 6.01983 3.15381C5.03523 4.13841 4.48213 5.47827 4.48213 6.875C4.48213 12.5 2.35713 14.375 2.35713 14.375H17.125C17.125 14.375 15 12.5 15 6.875Z" stroke="currentColor" strokeWidth="1.2" strokeLinecap="round" strokeLinejoin="round"/>
  <path d="M11.0892 17.5C10.9161 17.7526 10.6816 17.9573 10.4069 18.0961C10.1322 18.2349 9.82591 18.3033 9.51563 18.2953C9.20534 18.2872 8.90286 18.203 8.63538 18.0501C8.36789 17.8972 8.14404 17.6803 7.98438 17.4187" stroke="currentColor" strokeWidth="1.2" strokeLinecap="round" strokeLinejoin="round"/>
</svg> 