<svg width="20" height="20" viewBox="0 0 20 20" fill="none" xmlns="http://www.w3.org/2000/svg">
  <path d="M7.5 16.875V12.5C7.5 12.1685 7.6317 11.8505 7.86612 11.6161C8.10054 11.3817 8.41848 11.25 8.75 11.25H11.25C11.5815 11.25 11.8995 11.3817 12.1339 11.6161C12.3683 11.8505 12.5 12.1685 12.5 12.5V16.875" stroke="currentColor" strokeWidth="1.2" strokeLinecap="round" strokeLinejoin="round"/>
  <path d="M2.5 9.375L9.0675 3.96875C9.30605 3.77361 9.64879 3.66833 10 3.66833C10.3512 3.66833 10.694 3.77361 10.9325 3.96875L17.5 9.375" stroke="currentColor" strokeWidth="1.2" strokeLinecap="round" strokeLinejoin="round"/>
  <path d="M15.625 6.875V15.625C15.625 15.9565 15.4933 16.2745 15.2589 16.5089C15.0245 16.7433 14.7065 16.875 14.375 16.875H5.625C5.29348 16.875 4.97554 16.7433 4.74112 16.5089C4.5067 16.2745 4.375 15.9565 4.375 15.625V6.875" stroke="currentColor" strokeWidth="1.2" strokeLinecap="round" strokeLinejoin="round"/>
</svg> 